<svg id="visual" viewBox="0 0 960 540" width="960" height="540" xmlns="http://www.w3.org/2000/svg" xmlns:xlink="http://www.w3.org/1999/xlink" version="1.1"><path d="M0 379L22.8 378.2C45.7 377.3 91.3 375.7 137 369.8C182.7 364 228.3 354 274 348.2C319.7 342.3 365.3 340.7 411.2 347.8C457 355 503 371 548.8 372.2C594.7 373.3 640.3 359.7 686 350.5C731.7 341.3 777.3 336.7 823 337.7C868.7 338.7 914.3 345.3 937.2 348.7L960 352L960 541L937.2 541C914.3 541 868.7 541 823 541C777.3 541 731.7 541 686 541C640.3 541 594.7 541 548.8 541C503 541 457 541 411.2 541C365.3 541 319.7 541 274 541C228.3 541 182.7 541 137 541C91.3 541 45.7 541 22.8 541L0 541Z" fill="#a55cf2"></path><path d="M0 365L22.8 366.5C45.7 368 91.3 371 137 374.2C182.7 377.3 228.3 380.7 274 386.2C319.7 391.7 365.3 399.3 411.2 395.8C457 392.3 503 377.7 548.8 379.5C594.7 381.3 640.3 399.7 686 408.3C731.7 417 777.3 416 823 407.3C868.7 398.7 914.3 382.3 937.2 374.2L960 366L960 541L937.2 541C914.3 541 868.7 541 823 541C777.3 541 731.7 541 686 541C640.3 541 594.7 541 548.8 541C503 541 457 541 411.2 541C365.3 541 319.7 541 274 541C228.3 541 182.7 541 137 541C91.3 541 45.7 541 22.8 541L0 541Z" fill="#994cf5"></path><path d="M0 452L22.8 448.2C45.7 444.3 91.3 436.7 137 436.5C182.7 436.3 228.3 443.7 274 444.2C319.7 444.7 365.3 438.3 411.2 437.2C457 436 503 440 548.8 435.8C594.7 431.7 640.3 419.3 686 418.3C731.7 417.3 777.3 427.7 823 427.5C868.7 427.3 914.3 416.7 937.2 411.3L960 406L960 541L937.2 541C914.3 541 868.7 541 823 541C777.3 541 731.7 541 686 541C640.3 541 594.7 541 548.8 541C503 541 457 541 411.2 541C365.3 541 319.7 541 274 541C228.3 541 182.7 541 137 541C91.3 541 45.7 541 22.8 541L0 541Z" fill="#8b3af8"></path><path d="M0 445L22.8 446.7C45.7 448.3 91.3 451.7 137 457.3C182.7 463 228.3 471 274 473.7C319.7 476.3 365.3 473.7 411.2 471.5C457 469.3 503 467.7 548.8 464.8C594.7 462 640.3 458 686 453.7C731.7 449.3 777.3 444.7 823 443.7C868.7 442.7 914.3 445.3 937.2 446.7L960 448L960 541L937.2 541C914.3 541 868.7 541 823 541C777.3 541 731.7 541 686 541C640.3 541 594.7 541 548.8 541C503 541 457 541 411.2 541C365.3 541 319.7 541 274 541C228.3 541 182.7 541 137 541C91.3 541 45.7 541 22.8 541L0 541Z" fill="#7a25fb"></path><path d="M0 502L22.8 502C45.7 502 91.3 502 137 500.7C182.7 499.3 228.3 496.7 274 496.5C319.7 496.3 365.3 498.7 411.2 497.8C457 497 503 493 548.8 490.2C594.7 487.3 640.3 485.7 686 489.8C731.7 494 777.3 504 823 502.2C868.7 500.3 914.3 486.7 937.2 479.8L960 473L960 541L937.2 541C914.3 541 868.7 541 823 541C777.3 541 731.7 541 686 541C640.3 541 594.7 541 548.8 541C503 541 457 541 411.2 541C365.3 541 319.7 541 274 541C228.3 541 182.7 541 137 541C91.3 541 45.7 541 22.8 541L0 541Z" fill="#6600ff"></path></svg>