<svg id="visual" viewBox="0 0 960 300" width="960" height="300" xmlns="http://www.w3.org/2000/svg" xmlns:xlink="http://www.w3.org/1999/xlink" version="1.1"><path d="M0 207L22.8 202.8C45.7 198.7 91.3 190.3 137 190.2C182.7 190 228.3 198 274 202.2C319.7 206.3 365.3 206.7 411.2 207.7C457 208.7 503 210.3 548.8 212.5C594.7 214.7 640.3 217.3 686 213.8C731.7 210.3 777.3 200.7 823 195.2C868.7 189.7 914.3 188.3 937.2 187.7L960 187L960 301L937.2 301C914.3 301 868.7 301 823 301C777.3 301 731.7 301 686 301C640.3 301 594.7 301 548.8 301C503 301 457 301 411.2 301C365.3 301 319.7 301 274 301C228.3 301 182.7 301 137 301C91.3 301 45.7 301 22.8 301L0 301Z" fill="#bc69fa"></path><path d="M0 227L22.8 222.5C45.7 218 91.3 209 137 207.5C182.7 206 228.3 212 274 212.7C319.7 213.3 365.3 208.7 411.2 205.3C457 202 503 200 548.8 203.2C594.7 206.3 640.3 214.7 686 221.3C731.7 228 777.3 233 823 229.5C868.7 226 914.3 214 937.2 208L960 202L960 301L937.2 301C914.3 301 868.7 301 823 301C777.3 301 731.7 301 686 301C640.3 301 594.7 301 548.8 301C503 301 457 301 411.2 301C365.3 301 319.7 301 274 301C228.3 301 182.7 301 137 301C91.3 301 45.7 301 22.8 301L0 301Z" fill="#a958ed"></path><path d="M0 219L22.8 219C45.7 219 91.3 219 137 223.8C182.7 228.7 228.3 238.3 274 241C319.7 243.7 365.3 239.3 411.2 237.5C457 235.7 503 236.3 548.8 234.2C594.7 232 640.3 227 686 224.2C731.7 221.3 777.3 220.7 823 224.3C868.7 228 914.3 236 937.2 240L960 244L960 301L937.2 301C914.3 301 868.7 301 823 301C777.3 301 731.7 301 686 301C640.3 301 594.7 301 548.8 301C503 301 457 301 411.2 301C365.3 301 319.7 301 274 301C228.3 301 182.7 301 137 301C91.3 301 45.7 301 22.8 301L0 301Z" fill="#9647e0"></path><path d="M0 267L22.8 263.8C45.7 260.7 91.3 254.3 137 251.3C182.7 248.3 228.3 248.7 274 250.7C319.7 252.7 365.3 256.3 411.2 259.5C457 262.7 503 265.3 548.8 264.5C594.7 263.7 640.3 259.3 686 257.8C731.7 256.3 777.3 257.7 823 259.5C868.7 261.3 914.3 263.7 937.2 264.8L960 266L960 301L937.2 301C914.3 301 868.7 301 823 301C777.3 301 731.7 301 686 301C640.3 301 594.7 301 548.8 301C503 301 457 301 411.2 301C365.3 301 319.7 301 274 301C228.3 301 182.7 301 137 301C91.3 301 45.7 301 22.8 301L0 301Z" fill="#8236d3"></path><path d="M0 275L22.8 272.8C45.7 270.7 91.3 266.3 137 267C182.7 267.7 228.3 273.3 274 276.5C319.7 279.7 365.3 280.3 411.2 278.8C457 277.3 503 273.7 548.8 271.2C594.7 268.7 640.3 267.3 686 266.7C731.7 266 777.3 266 823 268.3C868.7 270.7 914.3 275.3 937.2 277.7L960 280L960 301L937.2 301C914.3 301 868.7 301 823 301C777.3 301 731.7 301 686 301C640.3 301 594.7 301 548.8 301C503 301 457 301 411.2 301C365.3 301 319.7 301 274 301C228.3 301 182.7 301 137 301C91.3 301 45.7 301 22.8 301L0 301Z" fill="#6e24c7"></path></svg>